<svg xmlns="http://www.w3.org/2000/svg" viewBox="0 0 64 64"><defs><style>.cls-1{fill:#231f20;}.cls-2{fill:none;}</style></defs><title>Asset 3</title><g id="Layer_2" data-name="Layer 2"><g id="Layer_1-2" data-name="Layer 1"><path class="cls-1" d="M13.88,9.59a2.31,2.31,0,0,0-2.33,2.27h4.66a2.3,2.3,0,0,0-2.33-2.27"/><path class="cls-1" d="M50.12,9.59a2.3,2.3,0,0,0-2.33,2.27h4.66a2.31,2.31,0,0,0-2.33-2.27"/><path class="cls-1" d="M59.46,14.1H40.81a1.7,1.7,0,1,0,0,3.4H59.46a1.7,1.7,0,1,0,0-3.4"/><path class="cls-1" d="M24.94,15.8a1.73,1.73,0,0,0-1.75-1.7H4.54a1.7,1.7,0,1,0,0,3.4H23.19a1.74,1.74,0,0,0,1.75-1.7"/><path class="cls-1" d="M34.19,45.89a2.14,2.14,0,1,1,2.2-2.13,2.17,2.17,0,0,1-2.2,2.13m-3.86-3.12H27.67V41.19h2.66Zm7.21-3.19H26.46a.57.57,0,0,0-.58.56v7.29a.58.58,0,0,0,.58.57H37.54a.58.58,0,0,0,.58-.57V40.14a.57.57,0,0,0-.58-.56"/><path class="cls-1" d="M40.5,31.56a24.4,24.4,0,0,1,7.26,17.36v4.36a1.12,1.12,0,0,0,.34.8,1.18,1.18,0,0,0,.82.33h1.17a1.15,1.15,0,0,0,1.16-1.13V48.92a27.69,27.69,0,0,0-8.06-19.54,3.75,3.75,0,0,0-2.69,2.18"/><path class="cls-1" d="M20.93,29.4a27.7,27.7,0,0,0-8,19.52v4.36a1.15,1.15,0,0,0,1.17,1.13h1.16a1.21,1.21,0,0,0,.83-.33,1.16,1.16,0,0,0,.34-.8V48.92a24.39,24.39,0,0,1,7.17-17.27,3.89,3.89,0,0,0-2.62-2.25"/><path class="cls-1" d="M47.79,19.74v2.84H47a21.47,21.47,0,0,1-9.49-2.21,12.61,12.61,0,0,0-11.07,0A21.68,21.68,0,0,1,17,22.58h-.74V19.74H11.56l0,3.07c0,2.68,1.05,4.86,2.33,4.86.71,0,1.35-.66,1.77-1.7h5c2.63,0,5.91,1.94,7.27,7.43a2.26,2.26,0,0,0,2.22,1.7h.13v1.06h-.64a.23.23,0,0,0-.24.23v1.47h5.25V36.39a.23.23,0,0,0-.24-.23h-.64V35.1h.11a2.27,2.27,0,0,0,2.22-1.7C37.45,27.91,40.71,26,43.34,26h5c.42,1,1.06,1.7,1.77,1.7,1.28,0,2.33-2.18,2.33-4.86V19.74Z"/><rect class="cls-2" width="64" height="64"/></g></g></svg>