<svg xmlns="http://www.w3.org/2000/svg" viewBox="0 0 64 64"><defs><style>.cls-1{fill:#231f20;}.cls-2{fill:none;}</style></defs><title>Asset 7</title><g id="Layer_2" data-name="Layer 2"><g id="Layer_1-2" data-name="Layer 1"><path class="cls-1" d="M35.05,58.84l.91-.11a1,1,0,0,0,.23.55.64.64,0,0,0,1,0,.92.92,0,0,0,.2-.62.85.85,0,0,0-.19-.58.6.6,0,0,0-.46-.21,1.47,1.47,0,0,0-.43.07l.1-.79a.79.79,0,0,0,.58-.17.63.63,0,0,0,.2-.49.54.54,0,0,0-.15-.4.5.5,0,0,0-.39-.16.55.55,0,0,0-.41.18.79.79,0,0,0-.2.5l-.87-.15a1.94,1.94,0,0,1,.28-.74,1.32,1.32,0,0,1,.5-.43,1.74,1.74,0,0,1,.73-.16,1.42,1.42,0,0,1,1.1.46,1.22,1.22,0,0,1,.35.85,1.2,1.2,0,0,1-.7,1.06,1.14,1.14,0,0,1,.67.42,1.31,1.31,0,0,1,.25.79,1.61,1.61,0,0,1-1.64,1.6,1.59,1.59,0,0,1-1.1-.39,1.62,1.62,0,0,1-.51-1"/><path class="cls-1" d="M40.46,55.09a1.33,1.33,0,0,1,1.11.53,3.45,3.45,0,0,1,.48,2.07,3.47,3.47,0,0,1-.48,2.07,1.35,1.35,0,0,1-1.11.52,1.38,1.38,0,0,1-1.15-.57,3.49,3.49,0,0,1-.43-2,3.47,3.47,0,0,1,.48-2.07,1.32,1.32,0,0,1,1.1-.52m0,.81a.48.48,0,0,0-.3.11.78.78,0,0,0-.21.41,6.14,6.14,0,0,0-.09,1.27,6.4,6.4,0,0,0,.08,1.22.89.89,0,0,0,.22.45.48.48,0,0,0,.3.11.44.44,0,0,0,.3-.11A.78.78,0,0,0,41,59a5.31,5.31,0,0,0,.1-1.26A5.51,5.51,0,0,0,41,56.46a.94.94,0,0,0-.22-.45.44.44,0,0,0-.3-.11"/><path class="cls-1" d="M42.8,56.51h.87V57a1.33,1.33,0,0,1,1.1-.59,1.15,1.15,0,0,1,.59.15,1.1,1.1,0,0,1,.41.44,1.46,1.46,0,0,1,.5-.44,1.17,1.17,0,0,1,.58-.15,1.18,1.18,0,0,1,.65.17,1,1,0,0,1,.41.48,2.28,2.28,0,0,1,.09.76v2.35h-.93v-2.1a1.54,1.54,0,0,0-.1-.71.43.43,0,0,0-.4-.21.66.66,0,0,0-.37.13.69.69,0,0,0-.25.36,2.86,2.86,0,0,0-.07.76v1.77h-.94v-2a3.16,3.16,0,0,0,0-.69.42.42,0,0,0-.15-.23.5.5,0,0,0-.29-.08.63.63,0,0,0-.39.13.66.66,0,0,0-.25.35,2.68,2.68,0,0,0-.07.75v1.79H42.8Z"/><path class="cls-1" d="M15,58.84l.91-.11a1,1,0,0,0,.23.55.62.62,0,0,0,.46.19.64.64,0,0,0,.49-.23.92.92,0,0,0,.2-.62.9.9,0,0,0-.19-.58.61.61,0,0,0-.47-.21,1.41,1.41,0,0,0-.42.07l.1-.79a.79.79,0,0,0,.58-.17.63.63,0,0,0,.2-.49.54.54,0,0,0-.15-.4.5.5,0,0,0-.39-.16.54.54,0,0,0-.41.18.79.79,0,0,0-.2.5l-.87-.15a2.12,2.12,0,0,1,.27-.74,1.35,1.35,0,0,1,.51-.43,1.74,1.74,0,0,1,.73-.16,1.42,1.42,0,0,1,1.1.46,1.22,1.22,0,0,1,.35.85,1.19,1.19,0,0,1-.71,1.06,1.13,1.13,0,0,1,.68.42,1.31,1.31,0,0,1,.25.79,1.55,1.55,0,0,1-.47,1.13,1.72,1.72,0,0,1-2.27.08,1.62,1.62,0,0,1-.51-1"/><path class="cls-1" d="M20.4,55.09a1.33,1.33,0,0,1,1.11.53A3.45,3.45,0,0,1,22,57.69a3.47,3.47,0,0,1-.48,2.07,1.35,1.35,0,0,1-1.11.52,1.38,1.38,0,0,1-1.15-.57,3.49,3.49,0,0,1-.43-2,3.47,3.47,0,0,1,.48-2.07,1.32,1.32,0,0,1,1.1-.52m0,.81a.48.48,0,0,0-.3.11.78.78,0,0,0-.21.41,6,6,0,0,0-.1,1.27,5.46,5.46,0,0,0,.09,1.22.89.89,0,0,0,.22.45.48.48,0,0,0,.3.11.46.46,0,0,0,.3-.11.78.78,0,0,0,.21-.41,5.92,5.92,0,0,0,.1-1.26,5.51,5.51,0,0,0-.09-1.23A.94.94,0,0,0,20.7,56a.48.48,0,0,0-.3-.11"/><path class="cls-1" d="M22.74,56.51h.86V57a1.36,1.36,0,0,1,1.11-.59,1.15,1.15,0,0,1,.59.15,1.1,1.1,0,0,1,.41.44,1.46,1.46,0,0,1,.5-.44,1.16,1.16,0,0,1,.57-.15,1.24,1.24,0,0,1,.66.17,1,1,0,0,1,.41.48,2.28,2.28,0,0,1,.09.76v2.35H27v-2.1a1.54,1.54,0,0,0-.1-.71.44.44,0,0,0-.4-.21.66.66,0,0,0-.37.13.69.69,0,0,0-.25.36,2.77,2.77,0,0,0-.08.76v1.77h-.93v-2a3.16,3.16,0,0,0-.05-.69.44.44,0,0,0-.16-.23.47.47,0,0,0-.28-.08.63.63,0,0,0-.39.13.66.66,0,0,0-.25.35,2.68,2.68,0,0,0-.07.75v1.79h-.94Z"/><rect class="cls-1" x="35.73" y="52.01" width="11.7" height="1.38"/><polygon class="cls-1" points="46.48 52.6 46.48 54.7 47.43 53.65 48.37 52.6 47.43 51.55 46.48 50.5 46.48 52.6"/><rect class="cls-1" x="16.25" y="52.01" width="11.67" height="1.38"/><polygon class="cls-1" points="17.19 52.6 17.19 50.5 16.25 51.55 15.31 52.6 16.25 53.65 17.19 54.7 17.19 52.6"/><path class="cls-1" d="M34.92,43.73v9.44H28.77V43.73h-.31a1.11,1.11,0,0,1-1.1-1.2c0-1.12,0-2.24,0-3.36V36.29A1.12,1.12,0,0,1,28.56,35h6.7a1.11,1.11,0,0,1,1.19,1.26v6.13c0,.87-.41,1.29-1.24,1.3h-.29"/><path class="cls-1" d="M29.46,31.57a2.44,2.44,0,1,1,2.43,2.55,2.5,2.5,0,0,1-2.43-2.55"/><path class="cls-1" d="M48.13,7.61h0ZM31.9,45.89c5.21,0,12.66.71,16.22,2.46V7.59c-.42-.73-5-2.27-16.22-2.27S16.1,6.86,15.68,7.59c0,1.26,0,31.76,0,40.65,4.64-2.31,15.63-2.35,16.21-2.35m17.24,5.78a1,1,0,0,1-1-.93c-.65-1-6.83-2.8-16.23-2.8-11.34,0-15.88,2.11-16.21,2.75a1,1,0,0,1-2,0s0-43,0-43.1c0-1.62,1.88-2.7,5.9-3.42A76.15,76.15,0,0,1,31.9,3.27a76.07,76.07,0,0,1,12.37.86c4,.72,5.9,1.8,5.9,3.42v43.1a1,1,0,0,1-1,1"/><path class="cls-1" d="M15.85,7.55c1.21.8,6.62,2.09,16.06,2.09S46.75,8.35,48,7.55c-1.21-.81-6.62-2.1-16-2.1S17.06,6.74,15.85,7.55m16.06,4.14c-3.06,0-18.28-.2-18.28-4.14,0-1.49,1.82-2.48,5.9-3.21a73,73,0,0,1,12.38-.93c3.05,0,18.27.2,18.27,4.14,0,1.48-1.82,2.47-5.9,3.21a73,73,0,0,1-12.37.93"/><path class="cls-1" d="M33.68,17.3a.64.64,0,0,1-.89,0l-.88-.89L31,17.3a.64.64,0,0,1-.89,0,.62.62,0,0,1,0-.89l.89-.89-.89-.89a.62.62,0,0,1,0-.89.64.64,0,0,1,.89,0l.89.89.88-.89a.64.64,0,0,1,.89,0,.62.62,0,0,1,0,.89l-.89.89.89.89a.62.62,0,0,1,0,.89"/><path class="cls-1" d="M60.08,22.27a.6.6,0,0,0-.86,0l-2.16,2.16-.86-.86a.61.61,0,0,0-.86.86l1.29,1.29a.62.62,0,0,0,.87,0l2.58-2.59a.6.6,0,0,0,0-.86"/><path class="cls-1" d="M8.27,22.27a.6.6,0,0,0-.86,0L5.25,24.43l-.86-.86a.62.62,0,0,0-.87,0,.62.62,0,0,0,0,.86l1.3,1.29a.6.6,0,0,0,.86,0l2.59-2.59a.6.6,0,0,0,0-.86"/><path class="cls-1" d="M2.18,27.36c-.25,0-.46.38-.46.85h.92c0-.47-.2-.85-.46-.85"/><path class="cls-1" d="M9.32,27.36c-.26,0-.46.38-.46.85h.92c0-.47-.21-.85-.46-.85"/><path class="cls-1" d="M11.16,28.25H7.48a.44.44,0,0,0,0,.85h3.68a.44.44,0,0,0,0-.85"/><path class="cls-1" d="M4.36,28.68A.4.4,0,0,0,4,28.25H.34a.44.44,0,0,0,0,.85H4a.39.39,0,0,0,.34-.42"/><path class="cls-1" d="M6.84,33.27H4.66a.11.11,0,0,0-.11.11v1.43a.11.11,0,0,0,.11.11H6.84A.11.11,0,0,0,7,34.81V33.38a.11.11,0,0,0-.11-.11m-1.42.63H4.9v-.32h.52Zm.76.61a.42.42,0,1,1,.43-.42.42.42,0,0,1-.43.42"/><path class="cls-1" d="M7.42,31.69a4.81,4.81,0,0,1,1.43,3.42V36a.24.24,0,0,0,.23.23h.23A.23.23,0,0,0,9.54,36v-.85A5.43,5.43,0,0,0,8,31.26a.75.75,0,0,0-.53.43"/><path class="cls-1" d="M3.57,31.26A5.46,5.46,0,0,0,2,35.11V36a.23.23,0,0,0,.23.23h.23a.26.26,0,0,0,.16-.07A.23.23,0,0,0,2.67,36v-.85A4.83,4.83,0,0,1,4.09,31.7a.82.82,0,0,0-.52-.44"/><path class="cls-1" d="M8.86,29.36v.56H8.71a4.15,4.15,0,0,1-1.87-.44,2.5,2.5,0,0,0-2.18,0,4.18,4.18,0,0,1-1.87.44H2.64v-.56H1.73V30c0,.52.21,1,.46,1s.27-.13.35-.33h1C4,30.59,4.68,31,5,32.05a.44.44,0,0,0,.43.34h0v.2H5.28a0,0,0,0,0,0,0v.29h1v-.29a0,0,0,0,0,0,0H6.1v-.2h0a.45.45,0,0,0,.44-.34c.26-1.08.9-1.46,1.42-1.46H9c.08.2.21.33.35.33s.46-.43.46-1v-.61Z"/><path class="cls-1" d="M54.14,27.36c-.25,0-.46.38-.46.85h.92c0-.47-.2-.85-.46-.85"/><path class="cls-1" d="M61.28,27.36c-.26,0-.46.38-.46.85h.91c0-.47-.2-.85-.45-.85"/><path class="cls-1" d="M63.11,28.25H59.44a.44.44,0,0,0,0,.85h3.67a.43.43,0,0,0,0-.85"/><path class="cls-1" d="M56.32,28.68a.4.4,0,0,0-.35-.43H52.3a.44.44,0,0,0,0,.85H56a.39.39,0,0,0,.35-.42"/><path class="cls-1" d="M58.8,33.27H56.62a.12.12,0,0,0-.12.11v1.43a.12.12,0,0,0,.12.11H58.8a.11.11,0,0,0,.11-.11V33.38a.11.11,0,0,0-.11-.11m-1.42.63h-.52v-.32h.52Zm.76.61a.42.42,0,1,1,.43-.42.42.42,0,0,1-.43.42"/><path class="cls-1" d="M59.38,31.69a4.81,4.81,0,0,1,1.43,3.42V36a.2.2,0,0,0,.07.16.24.24,0,0,0,.16.07h.23A.23.23,0,0,0,61.5,36v-.85a5.43,5.43,0,0,0-1.59-3.85.75.75,0,0,0-.53.43"/><path class="cls-1" d="M55.53,31.26A5.46,5.46,0,0,0,54,35.11V36a.22.22,0,0,0,.22.23h.23a.28.28,0,0,0,.17-.07.23.23,0,0,0,.06-.16v-.85a4.79,4.79,0,0,1,1.42-3.41.82.82,0,0,0-.52-.44"/><path class="cls-1" d="M60.82,29.36v.56h-.15a4.15,4.15,0,0,1-1.87-.44,2.49,2.49,0,0,0-1.09-.25,2.46,2.46,0,0,0-1.09.25,4.18,4.18,0,0,1-1.87.44H54.6v-.56h-.92V30c0,.52.21,1,.46,1s.26-.13.35-.33h1c.52,0,1.17.38,1.43,1.46a.45.45,0,0,0,.44.34h0v.2h-.13a0,0,0,0,0,0,0v.29h1v-.29a0,0,0,0,0,0,0h-.12v-.2h0a.43.43,0,0,0,.43-.34c.27-1.08.91-1.46,1.43-1.46h1c.08.2.21.33.35.33s.46-.43.46-1v-.61Z"/><path class="cls-1" d="M28.24,18.54c-.26,0-.46.38-.46.85h.92c0-.47-.21-.85-.46-.85"/><path class="cls-1" d="M35.37,18.54c-.25,0-.46.38-.46.85h.92c0-.47-.21-.85-.46-.85"/><path class="cls-1" d="M37.21,19.43H33.54a.43.43,0,0,0,0,.85h3.67a.44.44,0,0,0,0-.85"/><path class="cls-1" d="M30.41,19.85a.39.39,0,0,0-.34-.42H26.4a.43.43,0,0,0,0,.85h3.67a.39.39,0,0,0,.34-.43"/><path class="cls-1" d="M32.89,24.44H30.71a.11.11,0,0,0-.11.11V26a.11.11,0,0,0,.11.11h2.18A.11.11,0,0,0,33,26V24.55a.11.11,0,0,0-.12-.11m-1.42.63H31v-.31h.52Zm.76.62a.43.43,0,0,1-.43-.42.44.44,0,0,1,.87,0,.43.43,0,0,1-.44.42"/><path class="cls-1" d="M33.48,22.87a4.8,4.8,0,0,1,1.43,3.41v.86a.23.23,0,0,0,.06.16.25.25,0,0,0,.16.06h.23a.22.22,0,0,0,.23-.22v-.86A5.45,5.45,0,0,0,34,22.44a.69.69,0,0,0-.53.43"/><path class="cls-1" d="M29.62,22.44A5.45,5.45,0,0,0,28,26.28v.86a.22.22,0,0,0,.23.22h.23a.23.23,0,0,0,.16-.06.24.24,0,0,0,.07-.16v-.86a4.8,4.8,0,0,1,1.41-3.4.75.75,0,0,0-.52-.44"/><path class="cls-1" d="M34.91,20.54v.56h-.15a4.18,4.18,0,0,1-1.87-.44,2.5,2.5,0,0,0-2.18,0,4.18,4.18,0,0,1-1.87.44H28.7v-.56h-.92v.6c0,.53.2,1,.46,1s.26-.13.34-.34h1c.52,0,1.16.39,1.43,1.47a.45.45,0,0,0,.44.33h0v.21h-.12a0,0,0,0,0-.05,0v.29h1v-.29a0,0,0,0,0,0,0h-.13v-.21h0a.45.45,0,0,0,.44-.33c.27-1.08.91-1.47,1.43-1.47h1c.09.21.21.34.35.34s.46-.43.46-1v-.6Z"/><rect class="cls-2" width="64" height="64"/></g></g></svg>