<svg xmlns="http://www.w3.org/2000/svg" viewBox="0 0 64 64"><defs><style>.cls-1{fill:#231f20;}.cls-2{fill:none;}</style></defs><title>Asset 8</title><g id="Layer_2" data-name="Layer 2"><g id="Layer_1-2" data-name="Layer 1"><path class="cls-1" d="M30.33,4.79l-.17-1.58a28.74,28.74,0,0,1,4.35-.12l-.08,1.58q-.61,0-1.26,0a26.87,26.87,0,0,0-2.84.15M40,5.51a27.59,27.59,0,0,0-4-.73l.16-1.57A27,27,0,0,1,40.41,4ZM24.81,6l-.49-1.51a28.83,28.83,0,0,1,4.22-1L28.8,5a27.3,27.3,0,0,0-4,1M45.29,7.5a27.32,27.32,0,0,0-3.8-1.56L42,4.44a28.18,28.18,0,0,1,4,1.65Zm-25.63.76-.79-1.37A28.72,28.72,0,0,1,22.78,5l.58,1.48a25.67,25.67,0,0,0-3.7,1.78M50,10.55a27,27,0,0,0-3.39-2.31l.79-1.37A28.08,28.08,0,0,1,51,9.32Zm-34.94,1L14,10.4a27.61,27.61,0,0,1,3.44-2.65l.87,1.32a26.31,26.31,0,0,0-3.25,2.51m39,2.94a28.43,28.43,0,0,0-2.84-3l1.06-1.17a28.75,28.75,0,0,1,3,3.14ZM11.32,15.77,10,14.84a28.66,28.66,0,0,1,2.82-3.31L14,12.64a29.33,29.33,0,0,0-2.66,3.13m45.84,3.46A26.26,26.26,0,0,0,55,15.74l1.28-.93a29.84,29.84,0,0,1,2.29,3.69ZM8.5,20.66,7.05,20a28.31,28.31,0,0,1,2.07-3.83l1.33.86A26.77,26.77,0,0,0,8.5,20.66m50.72,3.82a27,27,0,0,0-1.39-3.86L59.28,20a29.42,29.42,0,0,1,1.47,4.1ZM6.75,26,5.2,25.71a28.65,28.65,0,0,1,1.23-4.18l1.48.56A27.1,27.1,0,0,0,6.75,26m53.38,4A26.69,26.69,0,0,0,59.59,26l1.54-.33A28.26,28.26,0,0,1,61.71,30Zm-54,1.71H4.59v-.1a30,30,0,0,1,.32-4.35l1.57.24a26.76,26.76,0,0,0-.31,4.1Zm55.28,4.17-1.57-.24a27.26,27.26,0,0,0,.3-4v-.06h1.58v0a29.22,29.22,0,0,1-.31,4.3M5.23,37.7a28.15,28.15,0,0,1-.59-4.3l1.58-.1a26.39,26.39,0,0,0,.56,4.07Zm54.71,4-1.48-.55a27.06,27.06,0,0,0,1.15-3.95l1.55.32a28.61,28.61,0,0,1-1.22,4.18M7.1,43.38a27.38,27.38,0,0,1-1.48-4.09l1.52-.42a27.33,27.33,0,0,0,1.4,3.86Zm50.16,3.68-1.33-.85a28.05,28.05,0,0,0,2-3.62l1.44.64a28.25,28.25,0,0,1-2.06,3.83m-3.73,4.67L52.4,50.62a26.45,26.45,0,0,0,2.66-3.14l1.28.93a28.68,28.68,0,0,1-2.81,3.32m-4.61,3.79-.87-1.32a27.06,27.06,0,0,0,3.24-2.52l1.06,1.18a28.34,28.34,0,0,1-3.43,2.66m-30,.94A28.45,28.45,0,0,1,15.36,54l1-1.24a27.11,27.11,0,0,0,3.4,2.31Zm24.66,1.82L43,56.8A26.83,26.83,0,0,0,46.74,55l.79,1.37a28.22,28.22,0,0,1-3.91,1.9m-19.19.6a27.67,27.67,0,0,1-4-1.64l.71-1.42a26.1,26.1,0,0,0,3.8,1.55Zm13.43,1L37.6,58.3a25.82,25.82,0,0,0,4-1l.5,1.51a28,28,0,0,1-4.23,1m-7.59.24A29.51,29.51,0,0,1,26,59.34l.4-1.54a26.32,26.32,0,0,0,4,.73Zm2.91.15c-.43,0-.86,0-1.28,0L32,58.64a28.19,28.19,0,0,0,4.11-.13l.16,1.57a28.38,28.38,0,0,1-3.06.17"/><path class="cls-1" d="M2.24,49.76l1.45-.15a1.28,1.28,0,0,0,.37.78,1,1,0,0,0,.71.29,1,1,0,0,0,.77-.38,1.68,1.68,0,0,0,.32-1.12,1.55,1.55,0,0,0-.32-1,1.05,1.05,0,0,0-.81-.35,1.49,1.49,0,0,0-1.13.56l-1.19-.17.75-4H7v1.37H4.27L4,46.86a2.26,2.26,0,0,1,1-.24,2.19,2.19,0,0,1,1.64.7,2.58,2.58,0,0,1,.68,1.84,2.71,2.71,0,0,1-.55,1.68,2.41,2.41,0,0,1-2.06,1A2.55,2.55,0,0,1,3,51.28a2.33,2.33,0,0,1-.79-1.52"/><rect class="cls-1" x="8.45" y="50.26" width="2" height="2"/><path class="cls-1" d="M11.11,49.76l1.46-.15a1.27,1.27,0,0,0,.36.78,1,1,0,0,0,.71.29,1,1,0,0,0,.78-.38,1.68,1.68,0,0,0,.31-1.12,1.55,1.55,0,0,0-.31-1,1.06,1.06,0,0,0-.82-.35,1.49,1.49,0,0,0-1.13.56l-1.18-.17.75-4H15.9v1.37H13.14l-.23,1.29a2.26,2.26,0,0,1,1-.24,2.19,2.19,0,0,1,1.65.7,2.57,2.57,0,0,1,.67,1.84,2.76,2.76,0,0,1-.54,1.68,2.43,2.43,0,0,1-2.06,1,2.53,2.53,0,0,1-1.72-.57,2.34,2.34,0,0,1-.8-1.52"/><polygon class="cls-1" points="17.27 51.72 17.27 44.1 18.73 44.1 18.73 48.14 20.44 46.2 22.23 46.2 20.35 48.21 22.37 51.72 20.8 51.72 19.41 49.24 18.73 49.95 18.73 51.72 17.27 51.72"/><path class="cls-1" d="M23.13,46.2h1.35V47a2.15,2.15,0,0,1,1.72-.88,1.75,1.75,0,0,1,.91.22,1.7,1.7,0,0,1,.64.66,2.81,2.81,0,0,1,.79-.66,1.87,1.87,0,0,1,.9-.22,2,2,0,0,1,1,.25,1.49,1.49,0,0,1,.63.72,3.2,3.2,0,0,1,.15,1.15v3.53H29.79V48.56a2.18,2.18,0,0,0-.16-1.06.68.68,0,0,0-.62-.31,1,1,0,0,0-.58.19,1,1,0,0,0-.39.54,4.55,4.55,0,0,0-.11,1.15v2.65H26.47v-3a4.27,4.27,0,0,0-.08-1,.69.69,0,0,0-.24-.35.83.83,0,0,0-.45-.11,1.09,1.09,0,0,0-.61.18,1,1,0,0,0-.38.53A3.71,3.71,0,0,0,24.59,49v2.69H23.13Z"/><rect class="cls-1" x="34.24" y="44.15" width="15.29" height="7.57"/><path class="cls-1" d="M34,13.73c2.26-1.3,3.78-3.23,3.22-4.19s-3-.63-5.25.69l-2.76,1.6L20.5,10.54l-2.38,1.37,5.81,3L20.8,16.7l-3.26-1.18-1.56.9,2.77,2.85a16,16,0,0,0,9.51-2.21Z"/><path class="cls-1" d="M34.56,25.75H49.22L46.1,33.4H37.69ZM30.39,33.4a.71.71,0,0,0-.71.71v7.63a.71.71,0,0,0,.71.71h23a.7.7,0,0,0,.7-.71V34.11a.7.7,0,0,0-.7-.71h-3.2l3.12-7.65a.75.75,0,0,0,.05-.26v-5.1a.71.71,0,0,0-.71-.71H47.26V12.21a1.13,1.13,0,0,0-2.26,0v7.47H31.12a.71.71,0,0,0-.71.71v5.1a.58.58,0,0,0,.06.26l3.12,7.65Z"/><rect class="cls-2" width="64" height="64"/></g></g></svg>