<svg xmlns="http://www.w3.org/2000/svg" viewBox="0 0 64 64"><defs><style>.cls-1{fill:#231f20;}.cls-2{fill:none;}</style></defs><title>Asset 5</title><g id="Layer_2" data-name="Layer 2"><g id="Layer_1-2" data-name="Layer 1"><path class="cls-1" d="M8.66,30.45c-.15.27-.32.55-.47.83a1.77,1.77,0,0,0,.09,2.19.91.91,0,0,1,.17.56c0,1,0,1.92,0,2.88a.46.46,0,0,1-.16.33c-.07,0-.24,0-.34-.08-.36-.21-.7-.46-1-.68a4.72,4.72,0,0,1-2-5.74A8.12,8.12,0,0,1,9,26.24a4.44,4.44,0,0,1,1.78-.38c1.18,0,2.37,0,3.55,0,1.45,0,2.91-.06,4.36,0a2.28,2.28,0,0,1,2.46,1.9,11.12,11.12,0,0,1,.26,3.4,5.72,5.72,0,0,0,.41,2.71,1.63,1.63,0,0,0,1.31,1,13.47,13.47,0,0,0,2.2,0c.69-.08,1.72,1.26,1.42,2a2.11,2.11,0,0,1-2,1.44A7.58,7.58,0,0,1,20.14,37c-.23-.16-.39-.1-.38.21,0,1.74.06,3.49.07,5.24,0,2.64,0,5.29,0,7.93l0,9.2c0,.7.06,1.42,0,2.11a2.48,2.48,0,0,1-1.86,2.1,2.23,2.23,0,0,1-2.25-.64,2.83,2.83,0,0,1-.92-2.24c0-5,0-10,0-15,0-.85,0-1.71,0-2.56,0-.31,0-.54-.4-.56s-.45.2-.45.51c0,1.92,0,3.84,0,5.76,0,4-.05,8.09,0,12.13a2.76,2.76,0,0,1-2.81,2.64,2.73,2.73,0,0,1-2.25-2.4q0-11,0-22.08c0-2.56,0-5.12,0-7.68,0-.39,0-.78,0-1.17l-.23-.06"/><path class="cls-1" d="M15.08,25.49a4.73,4.73,0,0,1-2.15-.33,4.73,4.73,0,0,1-1.84-1.87,4.83,4.83,0,0,1-.56-2.21,4.48,4.48,0,0,1,3-4.29,4.26,4.26,0,0,1,5.32,1.78,4.49,4.49,0,0,1-2.1,6.79,5.79,5.79,0,0,1-1.68.13"/><path class="cls-1" d="M25.16,34.36c-.57,0-1.14,0-1.7,0a1.65,1.65,0,0,1-1.58-1.57c0-1-.06-2.05-.09-3.07,0-.31.09-.51.44-.43s.52-.1.62-.42c.38-1.21.76-2.43,1.15-3.64.46-1.41.93-2.81,1.38-4.21.65-2,1.27-4,1.92-6,0-.12.17-.4.44-.32s.06.74,0,.89c-.66,2.06-1.34,4.12-2,6.18-.49,1.51-.95,3-1.43,4.55-.31,1-.62,2-1,2.91-.1.3,0,.42.25.49l3,.94c.34.1.33.36.26.61-.19.64-.42,1.27-.63,1.9-.05.16-.14.31-.18.47-.18.69-.18.69-.89.73"/><polygon class="cls-1" points="26.5 9.56 27.33 10.4 22.48 15.29 21.65 14.45 26.5 9.56"/><polygon class="cls-1" points="20.78 16.17 20.73 14.71 20.67 13.25 22.17 14.76 23.67 16.27 22.22 16.22 20.78 16.17"/><polygon class="cls-1" points="27.98 8.9 28.04 10.36 28.09 11.82 26.59 10.31 25.09 8.8 26.54 8.85 27.98 8.9"/><path class="cls-1" d="M31.06,0c-.43,0-.78.65-.78,1.45h1.57c0-.8-.36-1.45-.79-1.45"/><path class="cls-1" d="M43.25,0c-.44,0-.79.65-.79,1.45H44C44,.65,43.68,0,43.25,0"/><path class="cls-1" d="M46.39,1.52H40.12a.66.66,0,0,0-.59.72.67.67,0,0,0,.59.73h6.27A.67.67,0,0,0,47,2.24a.66.66,0,0,0-.58-.72"/><path class="cls-1" d="M34.78,2.24a.67.67,0,0,0-.59-.72H27.92a.67.67,0,0,0-.59.72.68.68,0,0,0,.59.73h6.27a.68.68,0,0,0,.59-.73"/><path class="cls-1" d="M39,10.08H35.29a.19.19,0,0,0-.19.19v2.45a.18.18,0,0,0,.19.19H39a.19.19,0,0,0,.2-.19V10.27a.2.2,0,0,0-.2-.19m-2.42,1.08H35.7v-.53h.89Zm1.3,1a.72.72,0,1,1,.74-.71.73.73,0,0,1-.74.71"/><path class="cls-1" d="M40,7.39a8.21,8.21,0,0,1,2.44,5.83v1.47a.36.36,0,0,0,.12.27.39.39,0,0,0,.27.11h.39a.39.39,0,0,0,.4-.38V13.22a9.36,9.36,0,0,0-2.71-6.57,1.29,1.29,0,0,0-.91.74"/><path class="cls-1" d="M33.43,6.66a9.33,9.33,0,0,0-2.7,6.56v1.47a.38.38,0,0,0,.39.38h.39a.43.43,0,0,0,.28-.11.39.39,0,0,0,.11-.27V13.22a8.19,8.19,0,0,1,2.41-5.8,1.3,1.3,0,0,0-.88-.76"/><path class="cls-1" d="M42.46,3.41v1H42.2A7.22,7.22,0,0,1,39,3.62a4.24,4.24,0,0,0-3.72,0,7.22,7.22,0,0,1-3.19.75h-.25v-1H30.28v1c0,.9.36,1.63.79,1.63.24,0,.45-.22.59-.57h1.69c.88,0,2,.65,2.44,2.49a.76.76,0,0,0,.75.58h0v.35h-.21a.08.08,0,0,0-.08.08V9.5H38V9A.08.08,0,0,0,38,8.93h-.21V8.58h0A.76.76,0,0,0,38.53,8C39,6.16,40.08,5.51,41,5.51h1.68c.15.35.36.57.6.57.43,0,.78-.73.78-1.63v-1Z"/><rect class="cls-2" width="64" height="64"/></g></g></svg>