<svg id="Layer_1" data-name="Layer 1" xmlns="http://www.w3.org/2000/svg" viewBox="0 0 64 64"><defs><style>.cls-1,.cls-3{fill:none;}.cls-2{fill:#231f20;}.cls-3{stroke:#231f20;stroke-linecap:round;stroke-miterlimit:10;stroke-width:1.79px;}</style></defs><title>1907.2900 Droneflyer icons_64x64_v2</title><rect class="cls-1" width="64" height="64"/><path class="cls-2" d="M10,32.73c-.82,0-1.49,1.13-1.49,2.52h3c0-1.39-.66-2.52-1.48-2.52"/><path class="cls-2" d="M33.09,32.73c-.82,0-1.48,1.13-1.48,2.52h3c0-1.39-.67-2.52-1.49-2.52"/><path class="cls-2" d="M39,35.63H27.16a1.27,1.27,0,0,0,0,2.52H39a1.27,1.27,0,0,0,0-2.52"/><path class="cls-2" d="M17.05,36.89a1.19,1.19,0,0,0-1.11-1.26H4.06a1.27,1.27,0,0,0,0,2.52H15.94a1.2,1.2,0,0,0,1.11-1.26"/><path class="cls-2" d="M23,56.05a1.38,1.38,0,1,1,1.39-1.38A1.4,1.4,0,0,1,23,56.05m-2.46-2h-1.7V53h1.7Zm4.59-2H18a.37.37,0,0,0-.37.36V57a.37.37,0,0,0,.37.37h7.06a.37.37,0,0,0,.37-.37V52.35a.37.37,0,0,0-.37-.36"/><path class="cls-2" d="M27,46.84A15.69,15.69,0,0,1,31.59,58v2.8a.75.75,0,0,0,.74.73h.74a.74.74,0,0,0,.75-.73V58a17.89,17.89,0,0,0-5.14-12.55A2.42,2.42,0,0,0,27,46.84"/><path class="cls-2" d="M14.5,45.45A17.86,17.86,0,0,0,9.37,58v2.8a.74.74,0,0,0,.74.73h.74a.75.75,0,0,0,.53-.22.7.7,0,0,0,.22-.51V58A15.69,15.69,0,0,1,16.17,46.9a2.53,2.53,0,0,0-1.67-1.45"/><path class="cls-2" d="M31.61,39.25v1.82h-.49a13.52,13.52,0,0,1-6.05-1.42,8,8,0,0,0-7,0,13.62,13.62,0,0,1-6,1.42H11.5V39.25h-3v2c0,1.72.66,3.12,1.48,3.12.45,0,.86-.42,1.13-1.09h3.19C16,43.25,18.08,44.5,19,48a1.46,1.46,0,0,0,1.42,1.1h.08v.67H20a.15.15,0,0,0-.15.15v.94h3.34v-.94a.15.15,0,0,0-.15-.15h-.41v-.67h.07A1.46,1.46,0,0,0,24.16,48c.86-3.52,2.94-4.77,4.61-4.77H32c.27.67.68,1.09,1.13,1.09.82,0,1.48-1.4,1.48-3.12v-2Z"/><circle class="cls-2" cx="48.09" cy="15.71" r="5.04"/><line class="cls-3" x1="48.38" y1="2.16" x2="48.38" y2="7.19"/><line class="cls-3" x1="48.38" y1="24.23" x2="48.38" y2="29.27"/><line class="cls-3" x1="61.94" y1="15.71" x2="56.9" y2="15.71"/><line class="cls-3" x1="39.86" y1="15.71" x2="34.83" y2="15.71"/><line class="cls-3" x1="57.97" y1="25.3" x2="54.41" y2="21.74"/><line class="cls-3" x1="42.36" y1="9.69" x2="38.8" y2="6.13"/><line class="cls-3" x1="38.8" y1="25.3" x2="42.36" y2="21.74"/><line class="cls-3" x1="54.41" y1="9.69" x2="57.97" y2="6.13"/></svg>