<svg id="Layer_1" data-name="Layer 1" xmlns="http://www.w3.org/2000/svg" viewBox="0 0 64 64"><defs><style>.cls-1{fill:#231f20;}.cls-2{fill:none;}</style></defs><title>1907.2900 Droneflyer icons_64x64_v2</title><polygon class="cls-1" points="40.88 52.53 44.86 52.53 42.6 36.19 38.62 36.19 39.43 42 23.72 42 24.53 36.19 20.55 36.19 18.29 52.53 22.27 52.53 23.45 44 39.7 44 40.88 52.53"/><path d="M31.57,31.19c-16.11,0-29.18,6.75-29.18,15.07S15.46,61.32,31.57,61.32s29.19-6.74,29.19-15.06S47.69,31.19,31.57,31.19Zm0,27C16.89,58.18,5,52.51,5,45.52S16.89,32.85,31.57,32.85s26.59,5.67,26.59,12.67S46.26,58.18,31.57,58.18Z"/><rect class="cls-2" x="-0.43" y="-0.16" width="64" height="64"/><path class="cls-1" d="M24,3.16a1.15,1.15,0,0,1,1.44.77l-2.19.69A1.17,1.17,0,0,1,24,3.16"/><path class="cls-1" d="M7,8.55a1.14,1.14,0,0,1,1.44.76L6.22,10A1.17,1.17,0,0,1,7,8.55"/><path class="cls-1" d="M3.27,12.15,12,9.38a.87.87,0,0,1,1.08.57.88.88,0,0,1-.57,1.1L3.78,13.82a.87.87,0,0,1-1.08-.58.88.88,0,0,1,.57-1.09"/><path class="cls-1" d="M19.75,7.86a.89.89,0,0,1,.57-1.1L29.08,4a.87.87,0,0,1,.52,1.67L20.83,8.43a.86.86,0,0,1-1.08-.57"/><path class="cls-1" d="M9.6,13.19,10,14.58h0l.36-.11A10.17,10.17,0,0,0,14.52,12a6.09,6.09,0,0,1,2.41-1.45,6,6,0,0,1,2.8-.19A10.22,10.22,0,0,0,24.52,10l.35-.11L24.45,8.5l2.19-.69.47,1.51c.4,1.31.24,2.54-.37,2.73-.33.11-.73-.12-1.08-.57l-2.36.74c-1.23.39-2.48,1.83-2.3,4.73a1.13,1.13,0,0,1-.79,1.17l-1.75.56a1.13,1.13,0,0,1-1.3-.51c-1.47-2.5-3.29-3-4.52-2.58l-2.36.75c0,.57-.25,1-.58,1.09-.61.2-1.42-.72-1.83-2l-.46-1.51Z"/><path class="cls-1" d="M16,24l.41.22a6.22,6.22,0,0,0,8.45-2.67l.22-.42a.89.89,0,0,1,1.25-.41A.92.92,0,0,1,26.73,22l-.21.42a8,8,0,0,1-10.94,3.46l-.41-.22a1,1,0,0,1-.39-1.33A.9.9,0,0,1,16,24"/><path class="cls-1" d="M17.16,22.61l-.39-.21a.94.94,0,0,1-.37-1.22.81.81,0,0,1,1.16-.34l.41.22a2.87,2.87,0,0,0,3.9-1.24l.21-.4A.83.83,0,0,1,23.26,19a.88.88,0,0,1,.34,1.2l-.2.4a4.59,4.59,0,0,1-6.24,2"/></svg>