<svg xmlns="http://www.w3.org/2000/svg" viewBox="0 0 64 64"><defs><style>.cls-1,.cls-3{fill:none;}.cls-1{stroke:#231f20;stroke-width:5px;}.cls-2{fill:#231f20;}</style></defs><title>Asset 12</title><g id="Layer_2" data-name="Layer 2"><g id="Layer_1-2" data-name="Layer 1"><path class="cls-1" d="M24.18,49.41c9.57,0,17.34-7.52,17.34-16.8S33.75,15.82,24.18,15.82,6.83,23.34,6.83,32.61,14.6,49.41,24.18,49.41Z"/><line class="cls-1" x1="35.97" y1="21.26" x2="12.38" y2="43.97"/><path class="cls-2" d="M22.79,30.15c-2.16-.11-2.62-.29-2.62-1.69,0-1.78.93-1.94,2.62-1.94h2.64c1.8,0,2.48.18,2.48,1.94h4.76c0-5.44-3-5.83-7.24-6.07V20.22H22.79v2.17c-5.7,0-7.52,1-7.52,6.07,0,4,.93,5.35,7.52,5.77l2.64.19c2.56.21,3,.5,3,2,0,2-1,2-3,2H22.79c-2.05,0-2.89-.11-2.89-2.58H15c0,5.76,2.77,6.71,7.79,6.71V45h2.64V42.57c5.66,0,7.92-1.48,7.92-6.37,0-5.23-3-5.44-7.92-5.82Z"/><rect class="cls-3" width="64" height="64"/></g></g></svg>