<svg xmlns="http://www.w3.org/2000/svg" viewBox="0 0 64 64"><defs><style>.cls-1{fill:none;}.cls-2{fill:#231f20;}</style></defs><title>Asset 4</title><g id="Layer_2" data-name="Layer 2"><g id="Layer_1-2" data-name="Layer 1"><rect class="cls-1" width="64" height="64"/><path class="cls-2" d="M26.05,0c-.62,0-1.12.85-1.12,1.9h2.24c0-1-.51-1.9-1.12-1.9"/><path class="cls-2" d="M43.45,0c-.61,0-1.12.85-1.12,1.9h2.24c0-1-.5-1.9-1.12-1.9"/><path class="cls-2" d="M47.94,2.19H39a.91.91,0,0,0-.84,1,.91.91,0,0,0,.84.95h9a.91.91,0,0,0,.84-.95.91.91,0,0,0-.84-1"/><path class="cls-2" d="M31.36,3.14a.91.91,0,0,0-.84-1h-9a.91.91,0,0,0-.84,1,.91.91,0,0,0,.84.95h9a.91.91,0,0,0,.84-.95"/><path class="cls-2" d="M35.8,17.59a1,1,0,1,1,1.06-1,1,1,0,0,1-1.06,1M34,16.08H32.67v-.77H34Zm3.46-1.55H32.09a.28.28,0,0,0-.28.27v3.53a.29.29,0,0,0,.28.28h5.32a.29.29,0,0,0,.28-.28V14.8a.28.28,0,0,0-.28-.27"/><path class="cls-2" d="M38.83,10.65a11.84,11.84,0,0,1,3.49,8.4v2.11a.55.55,0,0,0,.16.39.59.59,0,0,0,.4.16h.56a.55.55,0,0,0,.56-.55V19.05a13.5,13.5,0,0,0-3.87-9.46,1.79,1.79,0,0,0-1.3,1.06"/><path class="cls-2" d="M29.43,9.6a13.47,13.47,0,0,0-3.86,9.45v2.11a.55.55,0,0,0,.56.55h.56a.57.57,0,0,0,.39-.16.51.51,0,0,0,.16-.39V19.05a11.87,11.87,0,0,1,3.45-8.36A1.87,1.87,0,0,0,29.43,9.6"/><path class="cls-2" d="M42.34,4.92V6.29H42A10.32,10.32,0,0,1,37.4,5.23a6,6,0,0,0-5.31,0,10.41,10.41,0,0,1-4.56,1.06h-.36V4.92H24.93V6.41c0,1.3.5,2.35,1.12,2.35.34,0,.65-.32.85-.82H29.3c1.26,0,2.84.94,3.49,3.6a1.1,1.1,0,0,0,1.07.82h.06v.51h-.31a.11.11,0,0,0-.11.11v.72H36V13a.11.11,0,0,0-.12-.11h-.3v-.51h0a1.1,1.1,0,0,0,1.07-.82c.65-2.66,2.21-3.6,3.48-3.6h2.41c.2.5.51.82.85.82.62,0,1.12-1,1.12-2.35V4.92Z"/><path class="cls-2" d="M32.39,41.6a7.77,7.77,0,0,0,0-11.16,8.18,8.18,0,0,0-11.39,0A7.77,7.77,0,0,0,21,41.6a8.18,8.18,0,0,0,11.39,0"/><path class="cls-2" d="M39.88,51.79s2.66,2.63,2.66,7.89V64H48V59.68a8,8,0,0,0-8.08-7.89"/><path class="cls-2" d="M5.06,59.68V64h5.42V59.68c0-5.26,2.66-7.89,2.66-7.89a8,8,0,0,0-8.08,7.89"/><path class="cls-2" d="M48.18,43.91a5.38,5.38,0,1,0-5.37,5.26,5.32,5.32,0,0,0,5.37-5.26"/><path class="cls-2" d="M10.58,38.65a5.26,5.26,0,1,0,0,10.52,5.26,5.26,0,1,0,0-10.52"/><path class="cls-2" d="M26.8,47.94h-.21c-5.88,0-10.69,5.89-10.69,11.64V64H37.42V59.58c0-5.75-4.75-11.64-10.62-11.64"/></g></g></svg>