<svg xmlns="http://www.w3.org/2000/svg" viewBox="0 0 64 64"><defs><style>.cls-1{fill:#231f20;}.cls-2{fill:none;}</style></defs><title>Asset 10</title><g id="Layer_2" data-name="Layer 2"><g id="Layer_1-2" data-name="Layer 1"><path class="cls-1" d="M33.72,38.39h6.49v-2H33.72Zm0-2.72h6.49v-2H33.72Zm-2.45-4.42L37,26.78l5.69,4.47v8.42H31.27Zm5.7-7h0l-8.48,6.67h0l-.41.32-.27.22v1.59H29.3v8.58H44.63V33.06h1.49V31.47l-.26-.22-.41-.32h0L37,24.26Z"/><path class="cls-1" d="M49.68,39.3V35.51a1.68,1.68,0,0,1,1.21-1.69s.1-.08.12-.14l1.08-2.76a1.62,1.62,0,0,1,1.72-1.19h6a1.63,1.63,0,0,1,1.72,1.19c.35.92.71,1.84,1.07,2.77a.22.22,0,0,0,.15.15,1.61,1.61,0,0,1,1.18,1.5c0,1.3,0,2.59,0,3.89a.35.35,0,0,0,0,.06H62.78v.19c0,.43,0,.86,0,1.28a1,1,0,0,1-1.08.88,1,1,0,0,1-1-.93c0-.23,0-.47,0-.71v-.7H53v.63c0,.23,0,.47,0,.7a1,1,0,0,1-1.08,1,1,1,0,0,1-1-1c0-.4,0-.81,0-1.21V39.3Zm2.51-5.52h9.22l0-.09c-.29-.79-.58-1.58-.88-2.37a.62.62,0,0,0-.7-.48h-6a.63.63,0,0,0-.73.51l-.45,1.21-.45,1.22M62.66,36a1,1,0,1,0-2,0,1,1,0,0,0,1,1,1,1,0,0,0,1-1m-11.72,0a1,1,0,1,0,1-1,1,1,0,0,0-1,1"/><path class="cls-1" d="M17.43,21.87s0,.38,0,.68c3.19-.35,11.36.86,13.48.67V23s-9.43-1.39-13.5-1.11M13.92,35.25a7,7,0,0,1-2.88-1l-.71-.43a1.17,1.17,0,0,1-.53-1,2.72,2.72,0,0,1,0-.28,7,7,0,0,1,1.52-4.23c.76-1,2.1-1.48,4.16-1.48s3.4.53,4.16,1.48a7,7,0,0,1,1.52,4.23c0,.09,0,.18,0,.28a1.18,1.18,0,0,1-.54,1l-.7.43a7,7,0,0,1-2.88,1,14.6,14.6,0,0,1-3.1,0m-2.64-9.53a1.06,1.06,0,1,1,1.06,1.16,1.11,1.11,0,0,1-1.06-1.16m7.32-1.16a1.16,1.16,0,1,1-1.06,1.16,1.11,1.11,0,0,1,1.06-1.16m4,14.31a1.59,1.59,0,0,0-.55.08l0,0a5.6,5.6,0,0,0-1.75-1.27l-.07,0c1-1,1.56-2.59,1.56-5a7.67,7.67,0,0,0-2.24-5.31,1.91,1.91,0,0,0,.76-1.55,1.78,1.78,0,0,0-1.7-1.86,1.61,1.61,0,0,0-1.24.6.32.32,0,0,1-.24.11H16.8a.22.22,0,0,1-.21-.17l-.15-.61a.31.31,0,0,0-.3-.26h-.55v0a.22.22,0,0,1,.21-.23H16V23a7.66,7.66,0,0,0,.85-.08.3.3,0,0,0,.28-.29v-.85a.3.3,0,0,0-.28-.29,7.66,7.66,0,0,0-.85-.08v-.22h1.12c-.14-.43-.84-.76-1.68-.76s-1.53.33-1.67.76h1.16v.22a8.14,8.14,0,0,0-.85.08.3.3,0,0,0-.27.29v.85a.3.3,0,0,0,.27.29,8.14,8.14,0,0,0,.85.08v.55H14.8a.31.31,0,0,0-.3.26l-.15.61a.22.22,0,0,1-.21.17h-.32a.32.32,0,0,1-.24-.11,1.61,1.61,0,0,0-1.24-.6,1.78,1.78,0,0,0-1.7,1.86,1.91,1.91,0,0,0,.76,1.55,7.63,7.63,0,0,0-2.24,5.31c0,2.45.58,4,1.56,5l-.07,0A5.6,5.6,0,0,0,8.9,38.92l0,0a1.63,1.63,0,0,0-.55-.08A1.23,1.23,0,0,0,7,40.25c0,1.38.6,1.39,1.35,1.39s1.35,0,1.35-1.39a1.58,1.58,0,0,0-.18-.8,4.61,4.61,0,0,1,2.59-.89,8.14,8.14,0,0,0,3.39.61,9.39,9.39,0,0,0,2.82-.38l0,0,.15-.05.05,0,.13-.05a2.88,2.88,0,0,1,.7,0,4.1,4.1,0,0,1,2.09.83,1.58,1.58,0,0,0-.18.8c0,1.38.6,1.39,1.35,1.39s1.35,0,1.35-1.39a1.23,1.23,0,0,0-1.35-1.38M13.48,22.55c0-.3,0-.68,0-.68C9.43,21.59,0,23,0,23v.24c2.13.19,10.29-1,13.48-.67"/><rect class="cls-2" width="64" height="64"/></g></g></svg>