<?xml version="1.0" encoding="utf-8"?>
<!-- Generator: Adobe Illustrator 23.0.2, SVG Export Plug-In . SVG Version: 6.00 Build 0)  -->
<svg version="1.1" id="Layer_1" xmlns="http://www.w3.org/2000/svg" xmlns:xlink="http://www.w3.org/1999/xlink" x="0px" y="0px"
	 viewBox="0 0 64 64" style="enable-background:new 0 0 64 64;" xml:space="preserve">
<style type="text/css">
	.st0{fill:none;stroke:#000000;stroke-width:5;}
</style>
<g>
	<g>
		<path d="M36.9,36h-1.4v-5.4c-0.5,0.5-1.1,0.9-1.8,1.1v-1.3c0.4-0.1,0.8-0.4,1.2-0.7c0.4-0.3,0.7-0.7,0.9-1.2h1.2V36z"/>
		<path d="M43.8,34.6V36h-5c0.1-0.5,0.2-1,0.5-1.4c0.3-0.5,0.8-1,1.6-1.8c0.6-0.6,1-1,1.2-1.2c0.2-0.3,0.3-0.6,0.3-0.9
			c0-0.3-0.1-0.6-0.3-0.7c-0.2-0.2-0.4-0.3-0.7-0.3c-0.3,0-0.5,0.1-0.7,0.3c-0.2,0.2-0.3,0.5-0.3,0.9L39,30.7
			c0.1-0.8,0.4-1.4,0.8-1.7c0.4-0.3,1-0.5,1.7-0.5c0.7,0,1.3,0.2,1.7,0.6c0.4,0.4,0.6,0.9,0.6,1.5c0,0.3-0.1,0.7-0.2,1
			c-0.1,0.3-0.3,0.6-0.6,1c-0.2,0.2-0.5,0.5-0.9,1c-0.5,0.4-0.7,0.7-0.9,0.8c-0.1,0.1-0.2,0.3-0.3,0.4H43.8z"/>
		<path d="M47.2,29.6c-0.2,0-0.3,0.1-0.5,0.2c-0.1,0.1-0.2,0.3-0.3,0.6c-0.1,0.4-0.1,1-0.1,1.9c0,0.9,0,1.5,0.1,1.8
			c0.1,0.3,0.2,0.5,0.3,0.7c0.1,0.1,0.3,0.2,0.5,0.2c0.2,0,0.3-0.1,0.5-0.2c0.1-0.1,0.2-0.3,0.3-0.6c0.1-0.4,0.1-1,0.1-1.9
			c0-0.9,0-1.5-0.1-1.8c-0.1-0.3-0.2-0.5-0.3-0.7C47.5,29.7,47.4,29.6,47.2,29.6 M47.2,28.4c0.7,0,1.3,0.3,1.7,0.8
			c0.5,0.6,0.7,1.6,0.7,3c0,1.4-0.2,2.4-0.7,3.1c-0.4,0.5-1,0.8-1.7,0.8c-0.7,0-1.3-0.3-1.8-0.8c-0.4-0.6-0.7-1.6-0.7-3
			c0-1.4,0.2-2.4,0.7-3C45.9,28.7,46.5,28.4,47.2,28.4"/>
		<path d="M50.8,30.5h1.3v0.7c0.5-0.6,1-0.9,1.7-0.9c0.3,0,0.6,0.1,0.9,0.2c0.3,0.1,0.5,0.4,0.6,0.6c0.2-0.3,0.5-0.5,0.8-0.6
			c0.3-0.1,0.6-0.2,0.9-0.2c0.4,0,0.7,0.1,1,0.2s0.5,0.4,0.6,0.7c0.1,0.2,0.1,0.6,0.1,1.1V36h-1.4v-3.1c0-0.5,0-0.9-0.1-1
			c-0.1-0.2-0.3-0.3-0.6-0.3c-0.2,0-0.4,0.1-0.6,0.2c-0.2,0.1-0.3,0.3-0.4,0.5c-0.1,0.2-0.1,0.6-0.1,1.1V36H54v-3c0-0.5,0-0.9-0.1-1
			c-0.1-0.2-0.1-0.3-0.2-0.3c-0.1-0.1-0.3-0.1-0.4-0.1c-0.2,0-0.4,0.1-0.6,0.2c-0.2,0.1-0.3,0.3-0.4,0.5c-0.1,0.2-0.1,0.6-0.1,1.1
			V36h-1.4V30.5z"/>
	</g>
	<rect x="60.2" y="13" width="3.8" height="2.6"/>
	<rect x="54.7" y="13" width="3.8" height="2.6"/>
	<rect x="49.3" y="13" width="3.8" height="2.6"/>
	<rect x="43.9" y="13" width="3.8" height="2.6"/>
	<rect x="38.4" y="13" width="3.8" height="2.6"/>
	<rect x="33" y="13" width="3.8" height="2.6"/>
	<rect x="27.6" y="13" width="3.8" height="2.6"/>
	<rect x="22.1" y="13" width="3.8" height="2.6"/>
	<rect x="16.7" y="13" width="3.8" height="2.6"/>
	<rect x="11.3" y="13" width="3.8" height="2.6"/>
	<rect x="5.8" y="13" width="3.8" height="2.6"/>
	<rect x="0.4" y="13" width="3.8" height="2.6"/>
	<path d="M48.5,44.7h-3.3v-3.3h3.3V44.7z M48.5,50h-3.3v-3.3h3.3V50z M48.5,55.3h-3.3V52h3.3V55.3z M43.4,44.7h-3.3v-3.3h3.3V44.7z
		 M43.4,50h-3.3v-3.3h3.3V50z M43.4,55.3h-3.3V52h3.3V55.3z M38.3,44.7H35v-3.3h3.3V44.7z M38.3,50H35v-3.3h3.3V50z M38.3,55.3H35
		V52h3.3V55.3z M49.3,39.2H34.2c-0.6,0-1.2,0.5-1.2,1.2v19.9h17.4V40.4C50.5,39.7,50,39.2,49.3,39.2"/>
	<path d="M10.7,39.2H7.5v-3.3h3.3V39.2z M10.7,44.5H7.5v-3.3h3.3V44.5z M10.7,49.7H7.5v-3.3h3.3V49.7z M5.6,39.2H2.4v-3.3h3.3V39.2z
		 M5.6,44.5H2.4v-3.3h3.3V44.5z M5.6,49.7H2.4v-3.3h3.3V49.7z M11.5,33.7h-10c-0.6,0-1.2,0.5-1.2,1.2v25.4h12.3V34.9
		C12.7,34.2,12.2,33.7,11.5,33.7"/>
	<path d="M29.6,30.7h-3.3v-3.3h3.3V30.7z M29.6,36h-3.3v-3.3h3.3V36z M29.6,41.2h-3.3v-3.3h3.3V41.2z M24.5,30.7h-3.3v-3.3h3.3V30.7
		z M24.5,36h-3.3v-3.3h3.3V36z M24.5,41.2h-3.3v-3.3h3.3V41.2z M19.4,30.7h-3.3v-3.3h3.3V30.7z M19.4,36h-3.3v-3.3h3.3V36z
		 M19.4,41.2h-3.3v-3.3h3.3V41.2z M30.4,25.2H15.3c-0.6,0-1.2,0.5-1.2,1.2v33.9h17.4V26.3C31.6,25.7,31.1,25.2,30.4,25.2"/>
	<path d="M54.6,19.7c-0.4-0.4-1-0.4-1.3,0l-3.4,3.4l-1.3-1.4c-0.4-0.4-1-0.4-1.3,0s-0.4,1,0,1.4l2,2c0.4,0.4,1,0.4,1.3,0l4-4.1
		C54.9,20.7,54.9,20.1,54.6,19.7"/>
	<path d="M53.6,9.3c-0.4,0.4-1,0.4-1.3,0L50.9,8l-1.3,1.4c-0.4,0.4-1,0.4-1.3,0c-0.4-0.4-0.4-1,0-1.4l1.3-1.4l-1.3-1.4
		c-0.4-0.4-0.4-1,0-1.4c0.4-0.4,1-0.4,1.3,0l1.3,1.4l1.3-1.4c0.4-0.4,1-0.4,1.3,0c0.4,0.4,0.4,1,0,1.4l-1.3,1.4L53.6,8
		C53.9,8.3,53.9,8.9,53.6,9.3"/>
	<polygon points="62.4,18.9 64,18.9 62.7,17.7 61.4,16.4 60.1,17.7 58.8,18.9 60.4,18.9 60.4,57.8 58.8,57.8 60.1,59 61.4,60.2 
		62.7,59 64,57.8 62.4,57.8 	"/>
</g>
</svg>
