<svg xmlns="http://www.w3.org/2000/svg" viewBox="0 0 64 64"><defs><style>.cls-1{fill:#231f20;}.cls-2{fill:none;}</style></defs><title>Asset 11</title><g id="Layer_2" data-name="Layer 2"><g id="Layer_1-2" data-name="Layer 1"><path class="cls-1" d="M44.64,33a11.94,11.94,0,1,0-12,11.94A12,12,0,0,0,44.64,33m-11,16.72a30.92,30.92,0,0,1-18.36-5.64A52.74,52.74,0,0,1,5,34.56a2.22,2.22,0,0,1-.13-3.06c5.56-6.42,12-11.59,20.3-14.09s16-1.07,23.3,3.36A49.86,49.86,0,0,1,60.12,31a2.82,2.82,0,0,1,.09,3.95C55,40.73,49.05,45.46,41.59,48.09a26.29,26.29,0,0,1-7.92,1.61"/><path class="cls-1" d="M27.51,32.55c0,.94.35,1.48,1.08,1.55s1.28-.41,1.39-1.35a2.68,2.68,0,0,1,2.59-2.58c.86-.1,1.4-.64,1.34-1.33s-.66-1.16-1.54-1.13a5.14,5.14,0,0,0-4.86,4.84m5.18,8.83a8.43,8.43,0,1,1,8.43-8.44,8.44,8.44,0,0,1-8.43,8.44"/><rect class="cls-2" width="64" height="64"/></g></g></svg>