<svg xmlns="http://www.w3.org/2000/svg" viewBox="0 0 64 64"><defs><style>.cls-1{fill:#231f20;}.cls-2{fill:none;}</style></defs><title>Asset 9</title><g id="Layer_2" data-name="Layer 2"><g id="Layer_1-2" data-name="Layer 1"><path class="cls-1" d="M35.31,3.91a1.52,1.52,0,0,0-1.91,1l2.92.92a1.55,1.55,0,0,0-1-1.94"/><path class="cls-1" d="M58,11.07a1.52,1.52,0,0,0-1.91,1L59,13a1.55,1.55,0,0,0-1-1.94"/><path class="cls-1" d="M62.91,15.86,51.25,12.18a1.14,1.14,0,0,0-1.43.76,1.17,1.17,0,0,0,.75,1.46l11.66,3.68a1.14,1.14,0,0,0,1.43-.76,1.17,1.17,0,0,0-.75-1.46"/><path class="cls-1" d="M41,10.15a1.16,1.16,0,0,0-.75-1.45L28.57,5a1.14,1.14,0,0,0-1.43.77,1.16,1.16,0,0,0,.75,1.45l11.66,3.69A1.14,1.14,0,0,0,41,10.15"/><path class="cls-1" d="M54.48,17.24l-.57,1.86h0L53.43,19a13.8,13.8,0,0,1-5.49-3.32,7.88,7.88,0,0,0-3.21-1.93A8,8,0,0,0,41,13.44,13.61,13.61,0,0,1,34.64,13l-.47-.15L34.74,11l-2.91-.92-.63,2c-.54,1.76-.32,3.39.49,3.64.44.14,1-.17,1.44-.76l3.13,1c1.64.52,3.31,2.43,3.06,6.29a1.53,1.53,0,0,0,1,1.56l2.33.73a1.49,1.49,0,0,0,1.73-.67c2-3.32,4.37-3.95,6-3.43l3.14,1c.06.76.32,1.32.76,1.46.81.26,1.9-1,2.43-2.71l.62-2Z"/><path class="cls-1" d="M45.94,31.61l-.55.29a8.27,8.27,0,0,1-11.24-3.55l-.29-.56a1.21,1.21,0,0,0-1.66-.55A1.25,1.25,0,0,0,31.7,29l.28.55A10.7,10.7,0,0,0,46.53,34.1l.54-.29a1.34,1.34,0,0,0,.53-1.76,1.19,1.19,0,0,0-1.66-.44"/><path class="cls-1" d="M44.43,29.77l.51-.28a1.25,1.25,0,0,0,.51-1.62,1.1,1.1,0,0,0-1.56-.45l-.53.29a3.81,3.81,0,0,1-5.19-1.64l-.28-.54a1.11,1.11,0,0,0-1.57-.5,1.18,1.18,0,0,0-.45,1.6l.27.52a6.09,6.09,0,0,0,8.29,2.62"/><path class="cls-1" d="M14.64,58.7c-3.73,0-7.33,0-9.51-.15a.93.93,0,0,1-.87-1,.92.92,0,0,1,1-.88c4.72.24,16.26.14,21.1,0h0a.93.93,0,0,1,0,1.86c-2.64,0-7.27.11-11.72.11"/><path class="cls-1" d="M9.39,54.93a8.4,8.4,0,0,1-5.47-2A10.54,10.54,0,0,1,.79,48.14c-1.16-3.6-.27-7.13,2.29-9a.91.91,0,0,1,1,0,1,1,0,0,1,.43.93,2.74,2.74,0,0,0,1.7,2.66c-.07-.52-.18-1.07-.29-1.63-.64-3.28-1.45-7.36,4.31-10.3a.9.9,0,0,1,1,.09,1,1,0,0,1,.33.93A2,2,0,0,0,12.15,34a1.7,1.7,0,0,0,2-.26c2.06-1.46,1.9-3.9,1.44-7.2a.94.94,0,0,1,.36-.88.91.91,0,0,1,.94-.08c4.24,2.09,5.79,4.67,5.16,8.74a3.56,3.56,0,0,0,3-2.41.92.92,0,0,1,.64-.56.9.9,0,0,1,.81.21,6.22,6.22,0,0,1,2,4.82,12.35,12.35,0,0,1-2.58,7.15,18.88,18.88,0,0,0,3-.75l.06,0a.91.91,0,0,1,.77.11.89.89,0,0,1,.41.66,11,11,0,0,1-2.82,8,9.54,9.54,0,0,1-7.34,3.39h-.06a.93.93,0,0,1-.91-.94.92.92,0,0,1,.91-.92h.06a7.81,7.81,0,0,0,6-2.76,10,10,0,0,0,2.38-5.43,10.74,10.74,0,0,1-4.69.48.89.89,0,0,1-.69-.67.93.93,0,0,1,.28-.93,10.73,10.73,0,0,0,3.46-7.39,5,5,0,0,0-.6-2.49,5.2,5.2,0,0,1-5.27,2.21.88.88,0,0,1-.61-.4,1,1,0,0,1-.12-.72c.75-3.25.11-5.2-2.45-6.87.24,2.52.09,5.37-2.42,7.15a3.46,3.46,0,0,1-4,.29,3.49,3.49,0,0,1-1.43-2.28c-3,2.13-2.55,4.63-2,7.48a14.54,14.54,0,0,1,.41,3.5A.92.92,0,0,1,6.92,45,6.32,6.32,0,0,1,3,41.87a5.24,5.24,0,0,0-.72,1.77,7.58,7.58,0,0,0,.26,3.92c.89,2.75,3.36,5.51,6.87,5.51h.07a.93.93,0,0,1,0,1.85H9.39"/><path class="cls-1" d="M14.15,52.68a.92.92,0,0,1-.92-.92,7.82,7.82,0,0,0-.84-2.65c-1-2.34-2.44-5.54.7-8.64a.91.91,0,0,1,1-.2.94.94,0,0,1,.56.84,2.33,2.33,0,0,0,.58,1.5.68.68,0,0,0,.59.12c.83-.15,1-2.27,1.08-3.29,0-.18,0-.35.05-.5a.91.91,0,0,1,1.79-.12,10.78,10.78,0,0,0,.8,2A7.93,7.93,0,0,1,20.65,45a5.32,5.32,0,0,1-2,3.09,8.88,8.88,0,0,0-1,1,.91.91,0,0,1-1.29.11,1,1,0,0,1-.11-1.31,13.78,13.78,0,0,1,1.14-1.15,3.66,3.66,0,0,0,1.44-2,4.71,4.71,0,0,0-.59-2.33,2.82,2.82,0,0,1-2.12,2.15A2.46,2.46,0,0,1,14.06,44a3,3,0,0,1-.7-.88c-.84,1.72-.09,3.42.69,5.19a8.83,8.83,0,0,1,1,3.41.92.92,0,0,1-.91.92"/><rect class="cls-2" width="64" height="64"/></g></g></svg>